<?xml version="1.0" standalone="no"?><!DOCTYPE svg PUBLIC "-//W3C//DTD SVG 1.1//EN" "http://www.w3.org/Graphics/SVG/1.1/DTD/svg11.dtd"><svg t="1768723695055" class="icon" viewBox="0 0 1024 1024" version="1.1" xmlns="http://www.w3.org/2000/svg" p-id="4728" data-spm-anchor-id="a313x.search_index.0.i1.43f53a81Ucyqz6" xmlns:xlink="http://www.w3.org/1999/xlink" width="500" height="500"><path d="M173 873.3c-11 0-20-9-20-20V173.9c0-11 9-20 20-20h320.7c11 0 20-9 20-20v-15c0-11-9-20-20-20H153h-35c-11 0-20 9-20 20v809.3h395.7c11 0 20-9 20-20v-15c0-11-9-20-20-20H173z" fill="#d81e06" p-id="4729" data-spm-anchor-id="a313x.search_index.0.i3.43f53a81Ucyqz6" class="selected"></path><path d="M609.3 273.3c-7.8-7.8-7.8-20.5 0-28.3l10.6-10.6c7.8-7.8 20.5-7.8 28.3 0l264.9 264.9c7.8 7.8 7.8 20.5 0 28.3L648.4 792.8c-7.8 7.8-20.5 7.8-28.3 0l-10.6-10.6c-7.8-7.8-7.8-20.5 0-28.3l199-199c7.8-7.8 5.1-14.1-5.9-14.1H326.1c-11 0-20-9-20-20v-15c0-11 9-20 20-20h475.7c11 0 13.6-6.4 5.9-14.1L609.3 273.3z" fill="#d81e06" p-id="4730" data-spm-anchor-id="a313x.search_index.0.i2.43f53a81Ucyqz6" class="selected"></path></svg>